<?xml version="1.0" encoding="UTF-8" standalone="no"?>
<svg
   width="24"
   height="24"
   viewBox="0 0 24 24"
   fill="none"
   version="1.1"
   id="svg2"
   sodipodi:docname="close.svg"
   inkscape:version="1.3.2 (091e20e, 2023-11-25, custom)"
   xmlns:inkscape="http://www.inkscape.org/namespaces/inkscape"
   xmlns:sodipodi="http://sodipodi.sourceforge.net/DTD/sodipodi-0.dtd"
   xmlns="http://www.w3.org/2000/svg"
   xmlns:svg="http://www.w3.org/2000/svg">
  <sodipodi:namedview
     id="namedview2"
     pagecolor="#ffffff"
     bordercolor="#000000"
     borderopacity="0.25"
     inkscape:showpageshadow="2"
     inkscape:pageopacity="0.0"
     inkscape:pagecheckerboard="0"
     inkscape:deskcolor="#d1d1d1"
     inkscape:zoom="32.375"
     inkscape:cx="11.984556"
     inkscape:cy="12"
     inkscape:window-width="1920"
     inkscape:window-height="991"
     inkscape:window-x="-9"
     inkscape:window-y="-9"
     inkscape:window-maximized="1"
     inkscape:current-layer="svg2" />
  <circle
     cx="12"
     cy="12"
     r="12"
     fill="#E7E9FC"
     id="circle1" />
  <path
     style="color:#000000;fill:#000000;fill-opacity:0.1;-inkscape-stroke:none"
     d="M 12,0 C 5.3785119,0 0,5.3785119 0,12 0,18.621488 5.3785119,24 12,24 18.621488,24 24,18.621488 24,12 24,5.3785119 18.621488,0 12,0 Z m 0,1 C 18.081048,1 23,5.9189515 23,12 23,18.081048 18.081048,23 12,23 5.9189515,23 1,18.081048 1,12 1,5.9189515 5.9189515,1 12,1 Z"
     id="circle2" />
  <g
     clip-path="url(#clip0_297071_3050)"
     id="g2">
    <path
       d="M16 8.80571L15.1943 8L12 11.1943L8.80571 8L8 8.80571L11.1943 12L8 15.1943L8.80571 16L12 12.8057L15.1943 16L16 15.1943L12.8057 12L16 8.80571Z"
       fill="#2E2F42"
       id="path2" />
  </g>
  <defs
     id="defs2">
    <clipPath
       id="clip0_297071_3050">
      <rect
         width="8"
         height="8"
         fill="white"
         transform="translate(8 8)"
         id="rect2" />
    </clipPath>
  </defs>
</svg>
