<!-- Generated by IcoMoon.io -->
<svg version="1.1" xmlns="http://www.w3.org/2000/svg" width="47" height="32" viewBox="0 0 47 32">
<path d="M1.96-0.105c-1.205 0-2.182 0.977-2.182 2.182v0c0 1.205 0.977 2.182 2.182 2.182h42.966c1.205 0 2.182-0.977 2.182-2.182v0c0-1.205-0.977-2.182-2.182-2.182v0zM1.96 13.435c-1.205 0-2.182 0.977-2.182 2.182v0c0 1.205 0.977 2.182 2.182 2.182h42.966c1.205 0 2.182-0.977 2.182-2.182v0c0-1.205-0.977-2.182-2.182-2.182v0zM1.96 26.972c-1.205 0-2.182 0.977-2.182 2.182v0c0 1.205 0.977 2.182 2.182 2.182h42.966c1.205 0 2.182-0.977 2.182-2.182v0c0-1.205-0.977-2.182-2.182-2.182v0z"></path>
</svg>
